<svg width="508" height="508" viewBox="0 0 508 508" fill="none" xmlns="http://www.w3.org/2000/svg">
<path d="M108.6 143.45C78.4 143.45 53.9 167.95 53.9 198.15C53.9 228.25 78.4 252.85 108.6 252.85C138.8 252.85 163.3 228.35 163.3 198.15C163.3 167.95 138.8 143.45 108.6 143.45ZM108.6 224.65C94 224.65 82.1 212.75 82.1 198.15C82 183.55 93.9 171.65 108.6 171.65C123.2 171.65 135.1 183.55 135.1 198.15C135.1 212.75 123.2 224.65 108.6 224.65Z" fill="#D99777"/>
<path d="M254 113.55C222.7 113.55 197.2 139.05 197.2 170.35C197.2 201.65 222.7 227.15 254 227.15C285.3 227.15 310.8 201.65 310.8 170.35C310.8 139.05 285.3 113.55 254 113.55ZM254 197.85C238.8 197.85 226.5 185.45 226.5 170.35C226.5 155.25 238.8 142.85 254 142.85C269.2 142.85 281.5 155.25 281.5 170.35C281.5 185.55 269.1 197.85 254 197.85Z" fill="#D99777"/>
<path d="M399.5 143.45C369.3 143.45 344.8 167.95 344.8 198.15C344.8 228.25 369.3 252.85 399.5 252.85C429.7 252.85 454.2 228.35 454.2 198.15C454.2 167.95 429.7 143.45 399.5 143.45ZM399.5 224.65C384.9 224.65 373 212.75 373 198.15C373 183.55 384.9 171.65 399.5 171.65C414.1 171.65 426 183.55 426 198.15C426 212.75 414.1 224.65 399.5 224.65Z" fill="#D99777"/>
<path d="M399.5 271.85C381.8 271.85 364.3 276.25 348.7 284.55C336.6 269.25 319.4 258.15 299.3 254.15C269.6 248.25 238.6 248.25 208.9 254.15C188.9 258.15 171.6 269.25 159.5 284.55C143.9 276.25 126.4 271.85 108.7 271.85C48.7 271.85 0 320.55 0 380.35C0 388.15 6.3 394.45 14.1 394.45H493.9C501.7 394.45 508 388.15 508 380.35C508 320.55 459.3 271.85 399.5 271.85ZM140.8 338.15V366.35H29.5C36.2 328.75 69.1 300.15 108.6 300.15C121.6 300.15 134.3 303.45 145.7 309.35C142.5 318.35 140.8 328.05 140.8 338.15ZM339 366.25H169V338.05C169 310.65 188.1 287.05 214.3 281.75C240.4 276.55 267.7 276.55 293.8 281.75C320 287.05 339 310.75 339 338.15V366.25ZM367.3 366.25V338.05C367.3 328.05 365.6 318.35 362.4 309.25C373.8 303.25 386.6 300.05 399.6 300.05C439.1 300.05 472 328.65 478.7 366.25H367.3Z" fill="#D99777"/>
</svg>
