<svg width="24" height="24" viewBox="0 0 24 24" fill="none" xmlns="http://www.w3.org/2000/svg">
<path d="M12 13.9999C11.9 13.9999 11.8 13.9999 11.7 13.8999L0.7 9.8999C0.3 9.7999 0 9.3999 0 8.9999C0 8.5999 0.3 8.1999 0.7 8.0999L11.7 4.0999C11.9 3.9999 12.2 3.9999 12.4 4.0999L23.4 8.0999C23.7 8.1999 24 8.5999 24 8.9999C24 9.3999 23.7 9.7999 23.3 9.8999L12.3 13.8999C12.2 13.9999 12.1 13.9999 12 13.9999ZM3.9 8.9999L12 11.8999L20.1 8.9999L12 6.0999L3.9 8.9999Z" fill="#D99777"/>
<path d="M19 19.9999H12C11.4 19.9999 11 19.5999 11 18.9999C11 18.3999 11.4 17.9999 12 17.9999H18C17.9 15.3999 17.3 13.1999 16.3 11.5999C16 11.0999 16.2 10.4999 16.6 10.1999C17.1 9.89986 17.7 10.0999 18 10.4999C19.3 12.5999 20 15.4999 20 18.8999C20 19.5999 19.6 19.9999 19 19.9999Z" fill="#D99777"/>
<path d="M12 19.9999H5C4.4 19.9999 4 19.5999 4 18.9999C4 15.5999 4.7 12.6999 6 10.5999C6.3 10.0999 6.9 9.99985 7.4 10.2999C7.9 10.5999 8 11.1999 7.7 11.6999C6.7 13.2999 6.1 15.4999 6 18.0999H12C12.6 18.0999 13 18.4999 13 19.0999C13 19.6999 12.6 19.9999 12 19.9999Z" fill="#D99777"/>
<path d="M22 20C21.4 20 21 19.6 21 19V9C21 8.4 21.4 8 22 8C22.6 8 23 8.4 23 9V19C23 19.6 22.6 20 22 20Z" fill="#D99777"/>
</svg>
