<svg width="49" height="49" viewBox="0 0 49 49" fill="none" xmlns="http://www.w3.org/2000/svg">
<g clip-path="url(#clip0_102_52)">
<path d="M44.268 10.319C43.897 9.795 43.51 9.284 43.098 8.792C38.624 3.424 31.891 0 24.374 0C24.36 0 24.349 0 24.337 0C24.329 0 24.323 0 24.316 0C24.289 0 24.261 0.003 24.232 0.003C16.771 0.046 10.097 3.46 5.649 8.793C5.239 9.285 4.85 9.796 4.479 10.32C1.664 14.295 0 19.141 0 24.373C0 29.605 1.662 34.453 4.479 38.428C4.85 38.951 5.239 39.463 5.649 39.955C10.096 45.287 16.77 48.701 24.231 48.744C24.26 48.744 24.288 48.748 24.315 48.748C24.323 48.748 24.329 48.746 24.336 48.746C24.348 48.746 24.359 48.748 24.373 48.748C31.891 48.748 38.623 45.324 43.098 39.956C43.508 39.464 43.897 38.952 44.268 38.428C47.084 34.453 48.747 29.606 48.747 24.373C48.747 19.143 47.084 14.295 44.268 10.319ZM46.741 24.168H38.669C38.651 20.606 38.177 17.23 37.347 14.187C39.327 13.451 41.116 12.552 42.657 11.522C45.184 15.109 46.698 19.463 46.741 24.168ZM41.481 9.993C40.12 10.885 38.538 11.669 36.778 12.318C35.483 8.474 33.594 5.278 31.319 3.109C35.323 4.42 38.825 6.84 41.481 9.993ZM25.374 2.087C29.433 2.714 32.929 6.918 34.915 12.937C32.05 13.786 28.811 14.3 25.374 14.383V2.087ZM23.374 2.071V14.383C19.894 14.299 16.618 13.774 13.726 12.906C15.732 6.848 19.271 2.635 23.374 2.071ZM17.249 3.17C15.009 5.33 13.147 8.489 11.864 12.281C10.145 11.638 8.598 10.866 7.264 9.992C9.879 6.886 13.318 4.494 17.249 3.17ZM6.09 11.52C7.606 12.533 9.358 13.417 11.295 14.146C10.459 17.201 9.979 20.589 9.961 24.167H2.004C2.047 19.463 3.562 15.108 6.09 11.52ZM2.079 26.168H10C10.129 29.162 10.584 32.004 11.293 34.602C9.355 35.331 7.604 36.216 6.09 37.229C3.849 34.047 2.404 30.266 2.079 26.168ZM7.27 38.752C8.604 37.88 10.147 37.109 11.862 36.467C13.145 40.26 15.008 43.416 17.249 45.578C13.318 44.254 9.886 41.857 7.27 38.752ZM23.374 46.676C19.27 46.114 15.728 41.905 13.72 35.844C16.615 34.975 19.892 34.449 23.374 34.365V46.676ZM23.374 32.365C19.702 32.453 16.241 33.021 13.159 33.967C12.528 31.571 12.124 28.942 12.003 26.168L11.962 24.168C11.98 20.809 12.417 17.637 13.169 14.784C16.247 15.726 19.706 16.295 23.374 16.383H25.374C28.999 16.296 32.419 15.74 35.47 14.817C36.218 17.661 36.652 20.823 36.669 24.169L36.628 26.169C36.507 28.93 36.105 31.546 35.48 33.936C32.425 33.009 29.001 32.454 25.376 32.368H23.375V32.365H23.374ZM25.374 46.66V34.364C28.813 34.448 32.052 34.963 34.921 35.812C32.932 41.832 29.432 46.033 25.374 46.66ZM31.319 45.639C33.594 43.469 35.487 40.276 36.782 36.432C38.538 37.08 40.118 37.865 41.477 38.752C38.821 41.906 35.323 44.326 31.319 45.639ZM42.657 37.229C41.116 36.198 39.327 35.297 37.346 34.561C38.048 31.973 38.499 29.147 38.626 26.167H46.667C46.342 30.266 44.901 34.049 42.657 37.229Z" fill="#D99777"/>
<path d="M17.479 26.389C17.827 26.177 18.192 25.971 18.573 25.774C18.956 25.577 19.305 25.354 19.626 25.11C19.944 24.867 20.206 24.582 20.411 24.256C20.616 23.931 20.718 23.53 20.718 23.056C20.718 22.667 20.646 22.326 20.501 22.032C20.356 21.739 20.151 21.496 19.886 21.305C19.62 21.114 19.302 20.97 18.929 20.874C18.558 20.778 18.15 20.73 17.704 20.73C17.208 20.73 16.761 20.801 16.36 20.943C15.959 21.085 15.622 21.292 15.346 21.564C15.07 21.836 14.864 22.17 14.731 22.567C14.596 22.963 14.543 23.417 14.571 23.926H16.567C16.553 23.473 16.63 23.107 16.796 22.827C16.962 22.547 17.257 22.407 17.683 22.407C17.931 22.407 18.14 22.472 18.314 22.603C18.488 22.734 18.574 22.969 18.574 23.309C18.574 23.444 18.541 23.564 18.474 23.67C18.406 23.776 18.322 23.871 18.218 23.956C18.116 24.041 18.007 24.119 17.89 24.189C17.773 24.259 17.667 24.324 17.576 24.379C17.344 24.521 17.103 24.664 16.855 24.81C16.607 24.956 16.369 25.107 16.138 25.267C15.907 25.425 15.693 25.597 15.49 25.782C15.289 25.967 15.109 26.165 14.955 26.377C14.771 26.625 14.631 26.9 14.535 27.205C14.439 27.51 14.402 27.842 14.424 28.203H20.826V26.398H17.48L17.479 26.389Z" fill="#D99777"/>
<path d="M26.95 28.204V26.739H27.948V24.933H26.95V20.813H24.837L21.462 24.742V26.738H24.741V28.203H26.95V28.204ZM22.937 24.936L24.742 22.866V24.936H22.937Z" fill="#D99777"/>
<path d="M30.911 25.295C30.911 25.076 30.936 24.899 30.989 24.759C31.044 24.621 31.11 24.514 31.192 24.436C31.272 24.358 31.362 24.305 31.462 24.278C31.562 24.25 31.657 24.235 31.749 24.235C31.905 24.235 32.026 24.26 32.116 24.315C32.204 24.368 32.272 24.442 32.323 24.538C32.372 24.634 32.403 24.749 32.417 24.883C32.433 25.019 32.438 25.163 32.438 25.32V28.208H34.542V24.429C34.542 24.112 34.489 23.834 34.388 23.601C34.284 23.368 34.146 23.174 33.968 23.022C33.79 22.871 33.589 22.755 33.363 22.677C33.138 22.599 32.9 22.56 32.652 22.56C32.208 22.56 31.851 22.629 31.59 22.767C31.328 22.906 31.11 23.08 30.932 23.292H30.912V20.626H28.808V28.206H30.912V25.295H30.911Z" fill="#D99777"/>
</g>
<defs>
<clipPath id="clip0_102_52">
<rect width="48.749" height="48.748" fill="white"/>
</clipPath>
</defs>
</svg>
