<svg width="512" height="512" viewBox="0 0 512 512" fill="none" xmlns="http://www.w3.org/2000/svg">
<path d="M430.593 129.259L442.779 117.073C449.16 110.693 449.16 100.347 442.779 93.964C436.398 87.583 426.052 87.583 419.67 93.964L407.484 106.15C370.73 74.22 323.832 53.686 272.34 50.074V32.681H276.8C285.824 32.681 293.14 25.365 293.14 16.341C293.14 7.31698 285.824 0.000976562 276.8 0.000976562H235.2C226.176 0.000976562 218.86 7.31698 218.86 16.341C218.86 25.365 226.176 32.681 235.2 32.681H239.66V50.074C188.168 53.686 141.27 74.221 104.516 106.152L92.33 93.966C85.949 87.583 75.603 87.586 69.221 93.966C62.841 100.347 62.841 110.693 69.221 117.075L81.407 129.261C46.127 169.868 24.744 222.856 24.744 280.744C24.744 408.259 128.485 512 256 512C383.515 512 487.256 408.259 487.256 280.744C487.256 222.854 465.872 169.867 430.593 129.259ZM256 479.319C146.505 479.319 57.425 390.239 57.425 280.744C57.425 171.249 146.505 82.169 256 82.169C365.495 82.169 454.575 171.248 454.575 280.743C454.575 390.238 365.495 479.319 256 479.319Z" fill="#D99777"/>
<path d="M272.34 241.042V163.909C272.34 154.885 265.024 147.569 256 147.569C246.976 147.569 239.66 154.885 239.66 163.909V241.042C224.065 247.484 213.06 262.85 213.06 280.744C213.06 304.421 232.323 323.686 256 323.686C279.677 323.686 298.94 304.422 298.94 280.744C298.94 262.85 287.936 247.483 272.34 241.042ZM256 291.004C250.343 291.004 245.74 286.4 245.74 280.743C245.74 275.086 250.343 270.483 256 270.483C261.657 270.483 266.26 275.086 266.26 280.743C266.26 286.4 261.657 291.004 256 291.004Z" fill="#D99777"/>
</svg>
