<svg width="358" height="250" viewBox="0 0 358 250" fill="none" xmlns="http://www.w3.org/2000/svg">
<path fill-rule="evenodd" clip-rule="evenodd" d="M76.3159 1.66015C87.2765 -3.80148 102.544 4.65557 110.381 20.5313C118.219 36.397 115.683 53.7104 104.722 59.1721C93.7614 64.6237 78.4941 56.1767 70.6565 40.301C62.8189 24.4353 65.3453 7.11181 76.3159 1.66015ZM340.217 180.027C340.903 183.851 334.747 188.185 326.472 189.692C318.196 191.2 310.916 189.313 310.22 185.489C309.533 181.665 315.69 177.331 323.965 175.823C332.24 174.326 339.521 176.203 340.217 180.027Z" fill="#FFF0E9"/>
<path fill-rule="evenodd" clip-rule="evenodd" d="M251.308 66.2013C274.901 54.4094 292.913 12.2839 322.752 7.34152C354.758 2.04963 371.876 44.5345 343.907 90.3044C314.059 139.13 227 139.589 219.222 112.331C211.235 84.3236 232.829 75.4372 251.308 66.2013ZM40.092 99.4504C60.2131 92.0417 101.569 90.2745 126.892 146.418C149.032 195.503 181.039 176.402 189.871 201.784C201.488 235.162 121.044 274.083 40.092 228.762C-9.0121 201.264 -17.5459 120.658 40.092 99.4504Z" fill="#FFEBE2"/>
<path fill-rule="evenodd" clip-rule="evenodd" d="M179.389 134.707C179.389 134.707 178.444 137.463 175.192 139.839C173.461 141.097 174.794 143.224 176.634 142.924C176.634 142.924 175.789 143.673 174.505 144.003C172.616 144.492 173.053 146.609 174.675 146.758C175.808 146.858 176.584 146.668 177.559 146.129C177.559 146.129 178.912 147.467 181.239 146.129C181.239 146.129 185.576 147.417 188.788 139.819C188.798 139.819 182.154 133.229 179.389 134.707Z" fill="#F99382"/>
<path fill-rule="evenodd" clip-rule="evenodd" d="M209.555 212.078L212.509 218.458C208.789 222.492 206.81 233.405 212.509 235.692C214.617 236.541 216.835 235.961 218.785 234.773C222.057 232.766 224.603 229.032 224.693 227.444L219.809 207.565L209.555 212.078Z" fill="#3F2207"/>
<path fill-rule="evenodd" clip-rule="evenodd" d="M233.416 231.528L233.953 250H210.47C210.47 250 209.048 239.516 220.774 239.007L221.202 231.678L233.416 231.528Z" fill="#3F2207"/>
<path fill-rule="evenodd" clip-rule="evenodd" d="M277.686 231.528V250H249.648C249.648 250 247.947 239.516 261.951 239.007L263.115 231.678L277.686 231.528Z" fill="#FF7EAD"/>
<path fill-rule="evenodd" clip-rule="evenodd" d="M262.718 234.334C262.718 234.334 268.228 236.91 277.746 235.842L278.84 231.838L262.678 232.107L262.718 234.334Z" fill="#3F2207"/>
<path fill-rule="evenodd" clip-rule="evenodd" d="M296.097 231.528V250H324.135C324.135 250 325.836 239.516 311.831 239.007L310.668 231.678L296.097 231.528Z" fill="#FF7EAD"/>
<path fill-rule="evenodd" clip-rule="evenodd" d="M311.095 234.334C311.095 234.334 305.635 237 296.096 236.091L294.933 232.107H311.095V234.334Z" fill="#3F2207"/>
<path fill-rule="evenodd" clip-rule="evenodd" d="M259.197 138.661C259.197 138.661 255.994 144.572 256.969 148.366C257.486 150.373 261.852 152.38 264.577 153.977L265.303 138.661C265.294 138.661 262.837 135.455 259.197 138.661Z" fill="#F99382"/>
<path fill-rule="evenodd" clip-rule="evenodd" d="M203.578 125.241C203.578 125.241 191.254 165.4 191.97 174.086C192.687 182.773 208.073 213.356 208.073 213.356C208.073 213.356 217.532 213.845 222.555 206.996L211.405 174.076L219.81 145.5L237.345 126.369L203.578 125.241Z" fill="#EFC2E9"/>
<path fill-rule="evenodd" clip-rule="evenodd" d="M214.638 183.662C216.935 202.303 207.616 212.477 205.647 208.444V218.878L227.1 211.928C227.1 211.928 214.011 178.549 214.638 183.662ZM202.951 127.308C202.951 127.308 214.936 132.41 237.265 129.575L237.345 126.379C237.345 126.379 205.448 122.306 203.23 126.379L202.951 127.308Z" fill="#3F2207"/>
<path fill-rule="evenodd" clip-rule="evenodd" d="M234.6 232.637L237.345 126.379L216.12 135.256L218.129 232.637C224.196 234.025 228.971 234.025 234.6 232.637Z" fill="#EFC2E9"/>
<path fill-rule="evenodd" clip-rule="evenodd" d="M202.951 127.308C202.951 127.308 214.936 132.41 237.265 129.574L237.345 126.379C237.345 126.379 205.448 122.306 203.23 126.379L202.951 127.308Z" fill="#3F2207"/>
<path fill-rule="evenodd" clip-rule="evenodd" d="M216.12 135.266C216.12 135.266 214.807 155.984 212.848 169.154L216.647 156.254L216.12 135.266Z" fill="#3F2207"/>
<path fill-rule="evenodd" clip-rule="evenodd" d="M148.287 229.691V250H175.032C175.032 250 176.305 239.007 161.874 239.007L162.878 229.841L148.287 229.691Z" fill="#FF7EAD"/>
<path fill-rule="evenodd" clip-rule="evenodd" d="M165.812 232.287C165.812 232.287 160.183 234.564 150.724 233.006L149.839 228.952L165.962 230.08L165.812 232.287Z" fill="#3F2207"/>
<path fill-rule="evenodd" clip-rule="evenodd" d="M151.49 229.691V250H124.745C124.745 250 123.631 239.446 135.745 239.007L136.909 229.841L151.49 229.691Z" fill="#FF7EAD"/>
<path fill-rule="evenodd" clip-rule="evenodd" d="M136.501 233.106C136.501 233.106 142.071 235.522 151.559 234.194L152.544 230.16L136.401 230.879L136.501 233.106Z" fill="#3F2207"/>
<path fill-rule="evenodd" clip-rule="evenodd" d="M151.4 239.127L151.49 250H161.505C154.891 248.752 152.425 243.54 151.4 239.127ZM80.9615 229.541L79.1314 250H104.046C104.046 250 106.314 239.516 93.9014 239.007V229.681L80.9615 229.541ZM56.2453 161.286L40.3414 152.649C36.1939 150.373 24.7558 172.299 32.3049 177.222C32.3049 177.222 39.1876 181.565 44.857 170.961L50.6854 174.017L56.2453 161.286Z" fill="#3F2207"/>
<path fill-rule="evenodd" clip-rule="evenodd" d="M106.473 122.416L98.3872 231.528C98.3872 231.528 87.0983 234.364 78.7336 229.691L81.8169 175.714C79.5591 183.292 70.2595 189.623 61.477 184.61C51.0435 178.659 41.9428 172.02 41.9428 172.02C41.9428 172.02 40.2122 162.724 50.1981 156.254L61.4671 162.125L69.1157 123.674L106.473 122.416Z" fill="#EFC2E9"/>
<path fill-rule="evenodd" clip-rule="evenodd" d="M67.9316 124.742C67.9316 124.742 85.8447 135.955 106.473 128.256L107.945 121.277L67.9416 122.156V124.742H67.9316Z" fill="#3F2207"/>
<path fill-rule="evenodd" clip-rule="evenodd" d="M216.876 36.5171C216.21 35.1292 209.506 38.484 211.366 48.968C211.366 48.968 211.634 51.9734 210.968 53.1915C206.154 54.3397 200.435 61.2391 205.657 70.0057L221.461 69.4865L216.876 36.5171ZM103.878 32.1837C103.878 32.1837 104.852 30.706 103.878 29.7674C101.689 27.6407 90.6294 24.4656 84.7015 31.6745C80.4644 36.8366 79.7881 37.6054 77.0728 41.2298C72.4578 47.3904 73.3131 52.7721 80.1561 56.077C80.1959 57.405 78.9824 59.0126 85.7757 61.0794C85.7757 61.0794 102.634 65.5924 108.771 56.8159C108.771 56.8159 106.096 53.1515 105.996 48.7183C105.907 44.4549 106.503 40.5009 106.503 40.5009C106.503 40.5009 107.886 34.3903 103.878 32.1837Z" fill="#3F2207"/>
<path d="M61.4669 117.583C65.6911 117.583 69.1155 114.641 69.1155 111.013C69.1155 107.384 65.6911 104.443 61.4669 104.443C57.2427 104.443 53.8184 107.384 53.8184 111.013C53.8184 114.641 57.2427 117.583 61.4669 117.583Z" fill="#3F2207"/>
<path fill-rule="evenodd" clip-rule="evenodd" d="M166.776 116.235C169.75 127.068 173.182 168.595 172.665 175.704C172.008 184.66 166.11 219.986 164.19 230.939C164.19 230.939 160.5 232.647 153.737 230.939C153.737 230.939 141.971 232.886 133.775 230.939C133.775 230.939 130.384 144.152 130.264 128.896C130.205 121.627 130.931 120.239 131.756 116.235C132.572 112.231 157.188 106.849 166.776 116.235Z" fill="#63A4DA"/>
<path d="M156.721 137.782L153.538 227.245" stroke="#3F2207" stroke-miterlimit="12.5" stroke-linecap="round" stroke-linejoin="round"/>
<path fill-rule="evenodd" clip-rule="evenodd" d="M255.397 137.812L254.153 138.77L265.343 153.448L266.586 152.489L255.397 137.812Z" fill="#63A4DA"/>
<path fill-rule="evenodd" clip-rule="evenodd" d="M261.494 142.465C260.738 143.713 259.107 148.286 262.121 148.725C263.513 148.925 263.324 146.019 265.005 144.711" fill="#F99382"/>
<path d="M261.494 142.465C260.738 143.713 259.107 148.286 262.121 148.725C263.513 148.925 263.324 146.019 265.005 144.711" stroke="#3F2207" stroke-miterlimit="12.5" stroke-linecap="round" stroke-linejoin="round"/>
<path fill-rule="evenodd" clip-rule="evenodd" d="M265.294 127.767L259.505 232.117C259.505 232.117 268.536 235.233 278.84 232.637L284.45 178.21L293.232 232.637C293.232 232.637 301.497 235.932 312.747 232.637L303.507 126.379C303.517 126.379 286.529 118.511 265.294 127.767Z" fill="#CC855D"/>
<path fill-rule="evenodd" clip-rule="evenodd" d="M284.449 178.21L278.84 143.773L282.371 198.369C284.539 194.914 284.967 187.616 284.449 178.21ZM263.881 128.895C263.881 128.895 271.878 133.359 290.686 135.256C290.686 135.256 293.988 141.716 302.392 141.506L308.181 146.409L311.105 123.663L266.586 121.277L263.881 128.895Z" fill="#3F2207"/>
<path fill-rule="evenodd" clip-rule="evenodd" d="M222.893 34.0607C222.893 34.0607 222.007 26.702 228.453 25.7235C234.261 24.8349 235.564 32.9824 229.169 36.2973C229.159 36.2973 225.578 33.9409 222.893 34.0607Z" fill="#3F2207"/>
<path fill-rule="evenodd" clip-rule="evenodd" d="M77.5499 64.6638C77.5499 64.6638 70.1201 67.0002 66.3107 71.693C62.4516 76.4558 55.0119 98.0626 55.738 97.803L66.3107 114.997V123.254C66.3107 123.254 90.5992 133.139 108.174 123.663L109.288 100.01L114.569 106.889L120.408 85.9312C120.408 85.9312 114.888 75.0279 112.521 71.693C111.277 69.9357 109.606 68.9972 107.925 68.0586L77.5499 64.6638Z" fill="#63A4DA"/>
<path fill-rule="evenodd" clip-rule="evenodd" d="M111.118 86.5603C113.097 94.6878 113.077 96.0358 109.298 100.01L117.145 110.244C117.135 110.254 118.637 101.517 111.118 86.5603Z" fill="#3F2207"/>
<path d="M202.205 79.0918C202.205 79.0918 198.127 90.9936 198.595 95.2271C198.933 98.2624 201.708 100.669 202.205 102.057C202.374 102.536 202.345 111.302 202.285 118.142" stroke="#282845" stroke-width="4.1667" stroke-miterlimit="12.5" stroke-linecap="round" stroke-linejoin="round"/>
<path fill-rule="evenodd" clip-rule="evenodd" d="M142.936 62.3374C142.936 62.3374 132.502 63.9349 126.674 68.478C119.91 73.7499 109.805 102.476 113.217 113.309C116.549 123.913 125.46 120.708 131.717 116.265H167.274C167.274 116.265 168.229 118.122 170.367 93.4897L180.493 100.01C180.493 100.01 188.33 106.02 195.133 100.01L210.46 73.5202H203.568L188.788 84.803L178.832 73.5202C174.694 69.6062 172.983 66.2713 157.925 61.8381L142.936 62.3374Z" fill="#CC855D"/>
<path fill-rule="evenodd" clip-rule="evenodd" d="M166.777 64.9035L164.052 118.941H161.366L164.191 63.8851C164.191 63.8851 165.762 62.1777 166.777 64.9035ZM138.619 61.8382L143.384 118.541L140.648 118.032L136.023 62.3375C136.023 62.3375 137.247 59.2722 138.619 61.8382Z" fill="#63A4DA"/>
<path fill-rule="evenodd" clip-rule="evenodd" d="M170.363 93.5266L171.158 83.5818L175.027 96.522C172.7 95.1241 172.75 95.1241 170.363 93.5266ZM157.472 96.8015C157.472 96.8015 143.99 117.014 140.807 121.008C140.807 121.008 136.605 118.798 131.771 116.332L133.751 109.163L157.472 96.8015Z" fill="#3F2207"/>
<path fill-rule="evenodd" clip-rule="evenodd" d="M202.285 118.142C202.245 122.605 202.205 126.26 202.205 126.26C202.205 126.26 217.383 128.826 238.369 126.26L239.921 95.2271L244.247 78.5926C244.247 78.5926 245.511 69.7462 228.463 66.561H216.12C216.12 66.561 203.07 68.9674 200.325 74.6586C197.033 81.4882 189.643 106.66 187.803 110.863C185.963 115.067 177.449 135.276 177.449 135.276C177.449 135.276 179.906 142.624 191.354 142.475C191.354 142.465 197.859 130.463 202.285 118.142Z" fill="#63A4DA"/>
<path d="M202.285 118.142L202.205 98.612C199.261 95.2072 198.038 92.0919 203.578 80.7693" stroke="#3F2207" stroke-miterlimit="12.5" stroke-linecap="round" stroke-linejoin="round"/>
<path fill-rule="evenodd" clip-rule="evenodd" d="M217.492 36.1775C212.638 39.3726 206.144 59.4319 216.428 62.5771C216.428 62.5771 215.891 66.2315 215.294 68.7976C214.2 73.5004 223.291 75.3875 228.662 67.0403L234.59 52.852L232.849 42.6276L217.492 36.1775Z" fill="#F99382"/>
<path fill-rule="evenodd" clip-rule="evenodd" d="M216.428 62.5771C216.428 62.5771 219.343 63.4358 222.774 61.5886C222.774 61.5886 221.123 65.8421 215.921 65.6425C215.931 65.6425 214.419 63.2661 216.428 62.5771Z" fill="#3F2207"/>
<path d="M229.935 51.2745C229.935 51.2745 231.705 50.985 232.332 50.1063M218.785 46.2921C218.785 46.2921 217.184 50.3559 216.875 51.3344C216.696 51.8936 217.154 52.263 217.502 52.3828L218.785 46.2921ZM221.828 42.6278C221.828 42.6278 224.335 40.7207 226.762 43.2768L221.828 42.6278ZM214.12 42.2483C214.12 42.2483 216.338 40.7806 218.128 42.3382L214.12 42.2483ZM230.293 48.7284C230.293 48.7284 230.332 51.1248 229.159 53.1517L230.293 48.7284Z" stroke="#3F2207" stroke-miterlimit="12.5" stroke-linecap="round" stroke-linejoin="round"/>
<path fill-rule="evenodd" clip-rule="evenodd" d="M217.045 35.4487C216.239 37.6853 218 42.2682 226.186 43.2767C226.186 43.2767 227.2 46.2222 228.493 47.4104C228.493 47.4104 231.188 45.1538 233.088 47.9495C234.978 50.7453 232.621 56.0172 227.906 55.3782C224.435 57.1155 223.013 65.8421 231.547 67.7592C234.232 68.3583 236.092 69.217 236.828 69.4965C243.989 72.2323 249.161 56.8759 236.828 51.8735C233.406 50.4857 237.872 42.3182 230.98 36.1975C224.932 30.8258 217.95 32.9425 217.045 35.4487Z" fill="#3F2207"/>
<path fill-rule="evenodd" clip-rule="evenodd" d="M232.013 82.4367C232.013 82.4367 223.211 73.0511 227.786 70.7846C227.786 70.7846 228.333 68.4781 230.849 68.548C230.849 68.548 233.177 64.0948 236.37 68.9574C236.648 67.4597 238.458 64.2146 240.617 64.2046C241.731 64.1947 242.069 65.6225 241.323 66.7507C240.04 68.7277 239.334 71.4136 239.851 72.452C240.477 73.7101 241.213 74.3791 242.327 75.9267L232.013 82.4367Z" fill="#F99382"/>
<path fill-rule="evenodd" clip-rule="evenodd" d="M215.642 45.1936C216.05 45.1137 216.339 45.573 216.299 46.2021C216.259 46.8411 215.891 47.4102 215.483 47.4901C215.076 47.57 214.787 47.1107 214.827 46.4816C214.877 45.8526 215.235 45.2735 215.642 45.1936ZM223.41 45.4632C223.818 45.3833 224.107 45.8426 224.067 46.4717C224.027 47.1107 223.659 47.6898 223.261 47.7597C222.853 47.8396 222.565 47.3803 222.605 46.7512C222.645 46.1222 223.013 45.5431 223.41 45.4632Z" fill="#3F2207"/>
<path fill-rule="evenodd" clip-rule="evenodd" d="M217.074 55.6476C217.074 55.6476 220.217 55.7475 222.535 54.0701C222.535 54.0701 222.893 57.6046 219.869 58.0639C217.223 58.4633 217.134 55.7275 217.074 55.6476Z" fill="white"/>
<path d="M217.124 218.458C217.124 218.458 214.578 219.397 212.509 218.458M179.836 142.924C179.836 142.924 182.701 144.312 185.128 143.094L179.836 142.924ZM177.569 146.129C177.569 146.129 179.428 144.971 180.662 143.433L177.569 146.129ZM176.644 142.924C176.644 142.924 178.096 142.744 179.836 140.847L176.644 142.924ZM181.249 146.129C181.249 146.129 182.293 145.38 183.099 144.272L181.249 146.129ZM211.395 174.086L210.411 177.331L211.395 174.086Z" stroke="#282845" stroke-miterlimit="12.5" stroke-linecap="round" stroke-linejoin="round"/>
<path fill-rule="evenodd" clip-rule="evenodd" d="M276.493 63.3158C276.493 63.3158 265.751 66.1116 263.086 76.6654C260.42 87.2192 259.117 131.072 258.262 138.471C258.262 138.471 262.429 139.509 265.304 138.69L265.652 127.827C265.652 127.827 280.024 130.173 303.527 127.827L309.484 128.576C309.484 128.576 310.191 128.696 311.315 128.576C311.315 128.576 325.05 105.401 326.92 101.348C329.476 95.7861 327.815 92.6209 325.965 89.6754C323.628 85.9511 313.224 71.3735 311.315 69.4864C308.729 66.9403 304.939 63.2959 289.99 61.4387L276.493 63.3158ZM308.181 96.2254L307.575 104.153L310.867 98.8813L308.181 96.2254Z" fill="#EFC2E9"/>
<path fill-rule="evenodd" clip-rule="evenodd" d="M295.35 98.1925C294.982 97.853 294.495 97.6833 293.998 97.7332C293.5 97.7731 293.043 98.0327 292.745 98.4221C289.771 102.306 282.013 112.431 279.148 116.165C278.551 116.944 278.691 118.062 279.466 118.671C284.459 122.545 301.308 135.635 306.311 139.519C306.689 139.809 307.156 139.938 307.624 139.878C308.091 139.819 308.519 139.569 308.808 139.2C311.453 135.765 318.187 127.028 320.743 123.713C321.31 122.974 321.22 121.926 320.534 121.297C316.028 117.163 300.214 102.656 295.35 98.1925Z" fill="#63A4DA"/>
<path fill-rule="evenodd" clip-rule="evenodd" d="M299.956 118.821C299.956 118.821 299.409 120.718 298.325 121.277C296.892 122.026 295.311 122.875 294.625 122.965C293.232 123.144 290.089 123.184 290.089 123.184C290.089 123.184 289.274 126.859 294.277 126.379C294.277 126.379 291.104 130.054 290.855 131.981C290.706 133.149 292.148 134.397 294.028 134.038C294.028 134.038 293.879 137.183 297.867 136.364C297.867 136.364 299.757 138.401 302.522 136.584C305.267 134.787 310.161 127.308 310.161 127.308L299.956 118.821Z" fill="#F99382"/>
<path fill-rule="evenodd" clip-rule="evenodd" d="M265.294 84.803L262.121 126.879C262.121 126.879 263.434 127.468 265.642 127.817" fill="#EFC2E9"/>
<path d="M265.294 84.803L262.121 126.879C262.121 126.879 263.434 127.468 265.642 127.817" stroke="#3F2207" stroke-miterlimit="12.5" stroke-linecap="round" stroke-linejoin="round"/>
<path fill-rule="evenodd" clip-rule="evenodd" d="M305.476 107.488L298.314 118.931C298.314 118.931 299.518 125.581 311.294 128.566L317.312 118.342" fill="#EFC2E9"/>
<path fill-rule="evenodd" clip-rule="evenodd" d="M302.383 90.3047L308.171 96.2256L307.774 101.338L302.383 90.3047Z" fill="#3F2207"/>
<path d="M310.857 98.8816L304.392 109.216M312.746 95.8662L310.857 98.8816L312.746 95.8662Z" stroke="#282845" stroke-miterlimit="12.5" stroke-linecap="round" stroke-linejoin="round"/>
<path fill-rule="evenodd" clip-rule="evenodd" d="M139.584 39.5523C135.933 42.6276 138.549 49.0178 142.935 49.2075C142.935 49.2075 143.562 58.2636 142.935 62.3374C144.179 67.7391 159.725 72.8713 157.984 62.3374L157.278 55.3481L162.39 47.4103C162.39 47.4103 161.744 39.8019 160.073 34.0607C153.767 30.1467 149.719 32.0538 145.233 32.8525L139.584 39.5523Z" fill="#F99382"/>
<path fill-rule="evenodd" clip-rule="evenodd" d="M148.059 57.395C148.059 57.395 150.575 63.4557 158.064 62.8766C158.064 62.8766 160.143 61.6385 157.517 57.7045L148.059 57.395Z" fill="#F99382"/>
<path fill-rule="evenodd" clip-rule="evenodd" d="M145.651 49.2075L144.268 39.5523C144.268 39.5523 141.871 37.8748 139.594 39.5523C139.594 39.5523 137.405 34.8495 137.316 34.0507C137.226 33.2519 139.594 32.2734 139.594 32.2734C139.594 32.2734 137.455 28.8786 141.235 27.6705C142.528 25.1144 155.637 22.3386 158.044 26.682C159.943 27.2112 161.435 26.1828 160.083 34.0407C160.083 34.0407 153.836 32.2235 146.576 35.2489V43.5661C146.576 43.5661 149.56 45.0039 150.326 49.3073C150.326 49.3073 155.478 46.4018 162.4 47.3902C164.787 49.5969 166.021 60.0808 158.044 58.0839C154.692 60.1307 144.149 60.1607 145.651 49.2075Z" fill="#3F2207"/>
<path d="M140.43 43.2768C140.43 43.2768 142.091 43.4465 142.847 44.3252M155.369 39.5525C155.369 39.5525 157.08 44.3451 157.288 44.9642C157.497 45.5833 156.831 46.0725 156.224 46.2922L155.369 39.5525ZM155.856 36.2974C155.856 36.2974 158.104 36.0878 159.467 37.3059L155.856 36.2974ZM148.058 37.915C148.058 37.915 148.834 36.3673 151.908 36.2974L148.058 37.915ZM142.409 41.9388C142.409 41.9388 143.075 43.6961 142.827 46.2822L142.409 41.9388Z" stroke="#3F2207" stroke-miterlimit="12.5" stroke-linecap="round" stroke-linejoin="round"/>
<path fill-rule="evenodd" clip-rule="evenodd" d="M158.492 39.3227C158.084 39.2428 157.736 39.6921 157.706 40.3111C157.676 40.9302 157.985 41.4993 158.382 41.5792C158.79 41.659 159.138 41.2097 159.168 40.5907C159.208 39.9717 158.9 39.4026 158.492 39.3227ZM150.744 39.9916C150.336 39.9118 149.988 40.3611 149.958 40.9801C149.928 41.5991 150.237 42.1682 150.634 42.2481C151.042 42.328 151.39 41.8787 151.42 41.2597C151.46 40.6406 151.152 40.0715 150.744 39.9916Z" fill="#3F2207"/>
<path d="M154.146 50.1062C154.146 50.1062 154.931 52.5124 157.567 51.8634" stroke="#F99382" stroke-width="4.167" stroke-miterlimit="12.5" stroke-linecap="round" stroke-linejoin="round"/>
<path fill-rule="evenodd" clip-rule="evenodd" d="M142.876 92.701C142.876 92.701 143.692 91.5527 144.865 88.7171C146.337 85.1625 148.535 85.3423 150.744 86.8899C150.744 86.8899 151.42 86.3307 152.216 85.9313C153.737 85.1725 155.736 86.7301 155.359 88.7171C156.811 88.7071 158.313 90.3446 157.318 92.2816C157.318 92.2816 162.798 95.4967 148.804 103.275L142.876 92.701ZM102.594 34.0608C102.594 34.0608 108.691 36.1177 106.254 50.6953C104.971 58.3436 100.704 59.6716 98.3969 59.5917V63.3659C98.3969 63.3659 103.31 65.4527 107.935 68.0587C107.935 68.0587 98.6754 83.9344 77.5498 64.6639C77.5498 64.6639 81.9858 63.286 85.6062 62.3475L87.1976 50.5056C83.796 50.0962 81.6178 43.4864 84.5917 41.4994C86.5511 40.1914 88.7492 41.4894 89.2067 42.6277C89.2166 42.6277 97.4222 40.5708 102.594 34.0608Z" fill="#F99382"/>
<path fill-rule="evenodd" clip-rule="evenodd" d="M98.3969 59.5816C98.3969 59.5816 95.0351 59.5117 92.5088 57.2751C92.5088 57.2751 92.8967 62.3074 98.3969 63.1362C98.3969 63.1462 100.356 61.1093 98.3969 59.5816Z" fill="#3F2207"/>
<path d="M84.7109 44.325C84.7109 44.325 85.6956 45.7827 87.0085 46.0024M87.2074 42.9171C87.2074 42.9171 86.6007 45.3833 87.5058 48.0193L87.2074 42.9171ZM99.2721 42.2681C99.2721 42.2681 100.615 46.7512 100.824 47.4102C101.033 48.0592 99.8092 48.6184 99.8092 48.6184L99.2721 42.2681ZM100.625 38.2942C100.625 38.2942 103.37 37.0461 104.742 38.6337L100.625 38.2942ZM95.8904 37.9148C95.8904 37.9148 92.8867 37.8748 91.892 39.5523L95.8904 37.9148Z" stroke="#3F2207" stroke-miterlimit="12.5" stroke-linecap="round" stroke-linejoin="round"/>
<path fill-rule="evenodd" clip-rule="evenodd" d="M96.4972 50.1062C96.4972 50.1062 98.556 51.4342 101.639 51.0348C101.639 51.0348 101.072 53.0517 99.7993 53.4311C98.7152 53.7706 95.9303 53.1915 96.4972 50.1062Z" fill="white"/>
<path fill-rule="evenodd" clip-rule="evenodd" d="M102.734 41.6991C102.326 41.6193 101.978 42.0686 101.948 42.6876C101.918 43.3066 102.227 43.8758 102.625 43.9556C103.032 44.0355 103.381 43.5862 103.41 42.9672C103.45 42.3481 103.142 41.779 102.734 41.6991ZM95.2047 41.5094C94.7969 41.4296 94.4488 41.8789 94.419 42.4979C94.3892 43.1169 94.6975 43.686 95.0953 43.7659C95.5031 43.8458 95.8512 43.3965 95.8811 42.7775C95.9109 42.1484 95.6125 41.5793 95.2047 41.5094Z" fill="#3F2207"/>
<path fill-rule="evenodd" clip-rule="evenodd" d="M45.6423 104.333C45.3041 105.202 45.7119 106.18 46.5573 106.55C51.6498 108.776 68.1007 115.945 73.3523 118.232C73.7799 118.422 74.2574 118.422 74.695 118.242C75.1227 118.062 75.4708 117.723 75.6399 117.283C77.5495 112.481 83.0895 98.5819 84.9793 93.8392C85.1484 93.4098 85.1384 92.9406 84.9594 92.5112C84.7804 92.0919 84.4422 91.7524 84.0145 91.5826C78.753 89.4759 61.9937 82.7561 56.7123 80.6394C56.2847 80.4696 55.8072 80.4796 55.3895 80.6593C54.9718 80.8391 54.6435 81.1885 54.4745 81.6179C52.6444 86.3007 47.4226 99.7501 45.6423 104.333Z" fill="#CC855D"/>
<path fill-rule="evenodd" clip-rule="evenodd" d="M50.2773 105.641C50.2773 105.641 53.4701 113.669 55.7378 114.178C58.0055 114.687 61.3375 115.546 61.3375 115.546C61.3375 115.546 63.645 116.175 65.2364 114.617L61.059 112.8L61.7055 109.855C61.7055 109.855 65.6342 108.167 64.6197 106.24C63.9732 105.012 60.2931 106.52 59.8257 106.709C58.9604 107.059 58.5128 107.688 58.3437 108.227C59.7362 102.486 55.1609 100.878 54.8625 104.243C54.8128 104.822 54.7631 105.551 54.7034 106.709C53.0623 103.255 49.6308 104.053 50.2773 105.641Z" fill="#F99382"/>
<path d="M54.7038 106.709C54.7038 106.709 54.4452 109.955 54.7038 111.732M57.1605 111.562C57.1605 111.562 57.9264 109.286 58.3441 108.227L57.1605 111.562Z" stroke="#282845" stroke-miterlimit="12.5" stroke-linecap="round" stroke-linejoin="round"/>
<path fill-rule="evenodd" clip-rule="evenodd" d="M91.8919 139.938C90.7382 156.254 87.4162 187.286 80.9512 190.791L81.8165 175.704L91.8919 139.938ZM59.9648 168.595L61.4666 162.115L59.0099 160.837C58.6021 163.363 59.0497 165.959 59.9648 168.595Z" fill="#3F2207"/>
<path fill-rule="evenodd" clip-rule="evenodd" d="M130.265 63.6254C130.265 63.6254 131.747 60.5501 134.542 61.898C134.542 61.898 136.023 60.2106 138.102 61.5486C138.102 61.5486 139.704 59.941 141.643 62.8765C143.583 65.812 140.37 66.5609 139.704 66.1715C139.704 66.1715 138.968 67.4994 137.307 67.0401C137.307 67.0401 135.307 68.2383 132.503 65.2629C132.503 65.2629 129.36 66.5409 127.251 68.0586C127.251 68.0586 127.529 64.3143 127.669 63.6254C127.818 62.9364 129.071 62.5271 130.265 63.6254Z" fill="#F99382"/>
<path d="M138.102 61.5486C138.102 61.5486 141.056 63.9549 139.704 66.1715M130.265 63.6254C130.265 63.6254 131.021 64.5739 130.871 65.9818L130.265 63.6254ZM134.541 61.8881C134.541 61.8881 139.415 64.5939 137.307 67.0302L134.541 61.8881Z" stroke="#3F2207" stroke-miterlimit="12.5" stroke-linecap="round" stroke-linejoin="round"/>
<path fill-rule="evenodd" clip-rule="evenodd" d="M229.975 83.5849C229.975 83.5849 235.266 76.8851 243.83 74.0195C243.83 74.0195 255.407 90.5642 259.256 98.0328C262.727 104.762 260.668 108.876 256.849 111.442C252.533 114.338 248.902 111.682 245.849 107.548C242.795 103.415 229.975 83.5849 229.975 83.5849Z" fill="#63A4DA"/>
<path d="M239.752 98.6218L229.786 83.6748C229.786 83.6748 230.582 82.5465 232.929 80.4497" stroke="#3F2207" stroke-miterlimit="12.5" stroke-linecap="round" stroke-linejoin="round"/>
<path fill-rule="evenodd" clip-rule="evenodd" d="M119.691 104.752L142.647 91.9021C142.647 91.9021 147.222 95.0772 149.977 103.275L131.716 116.265" fill="#CC855D"/>
<path d="M119.691 104.752L142.647 91.9021C142.647 91.9021 147.222 95.0772 149.977 103.275L131.716 116.265" stroke="#3F2207" stroke-miterlimit="12.5" stroke-linecap="round" stroke-linejoin="round"/>
<path d="M151.4 86.4006L148.287 88.7171" stroke="#3F2207" stroke-miterlimit="12.5" stroke-linecap="round" stroke-linejoin="round"/>
<path d="M217.124 45.7929C217.124 45.7929 218.059 44.7046 219.481 45.7929M214.279 41.0002C216.109 41.0002 217.392 43.107 217.134 45.713C216.885 48.309 215.184 50.4258 213.364 50.4258C211.534 50.4258 210.251 48.319 210.51 45.713C210.758 43.117 212.449 41.0002 214.279 41.0002ZM223.738 41.0002C225.827 41.0002 227.329 43.107 227.07 45.713C226.821 48.309 224.912 50.4258 222.823 50.4258C220.734 50.4258 219.232 48.319 219.491 45.713C219.74 43.117 221.649 41.0002 223.738 41.0002Z" stroke="#FFEBE2" stroke-miterlimit="12.5" stroke-linecap="round" stroke-linejoin="round"/>
<path fill-rule="evenodd" clip-rule="evenodd" d="M272.803 36.9663C271.599 32.1737 271.002 30.2966 273.966 29.328C273.698 27.0715 273.937 24.6252 278.024 24.8349C277.905 23.5768 279.516 21.3003 283.604 23.2973C284.111 22.2289 288.279 21.4102 289.303 24.8349C290.447 25.1844 294.485 26.4025 292.894 28.5293C294.286 29.0085 296.952 30.4962 295.719 32.8426C297.002 33.4317 298.354 34.4402 294.923 38.6238L288.349 43.5762L272.803 36.9663Z" fill="#3F2207"/>
<path fill-rule="evenodd" clip-rule="evenodd" d="M274.115 32.8427C274.115 32.8427 266.288 52.5725 277.656 56.3767L276.433 63.6156C276.433 63.6156 275.597 67.4797 277.656 71.5535C277.656 71.5535 285.285 64.7739 289.979 61.429L290.825 47.9396C293.461 47.8298 297.429 42.2483 294.923 38.6239C292.486 35.1092 288.388 38.3842 288.279 40.2114C288.279 40.2114 288.129 35.269 288.279 32.8427C288.279 32.8427 278.989 27.2612 274.115 32.8427Z" fill="#F99382"/>
<path fill-rule="evenodd" clip-rule="evenodd" d="M284.908 55.3481C284.908 55.3481 281.556 57.4949 277.657 56.3766C277.657 56.3766 275.906 58.2238 277.02 60.1708C277.02 60.1708 283.674 60.4703 284.908 55.3481Z" fill="#3F2207"/>
<path d="M293.998 41.6192C293.998 41.6192 292.227 41.6092 290.954 42.9271M279.944 37.9148C279.944 37.9148 278.303 42.8173 278.054 44.1153C277.925 44.7843 279.049 45.0439 279.536 45.0739L279.944 37.9148ZM283.604 45.6031C283.485 46.0723 282.848 49.1476 278.84 48.9679L283.604 45.6031ZM282.649 35.0193C282.649 35.0193 284.39 33.9409 286.13 35.4186L282.649 35.0193ZM274.314 35.4086C274.314 35.4086 275.329 33.861 278.044 35.0193L274.314 35.4086ZM292.446 39.5523C292.446 39.5523 290.745 41.3795 290.646 45.5931L292.446 39.5523Z" stroke="#3F2207" stroke-miterlimit="12.5" stroke-linecap="round" stroke-linejoin="round"/>
<path fill-rule="evenodd" clip-rule="evenodd" d="M276.105 37.3058C276.513 37.226 276.831 37.6753 276.791 38.2943C276.761 38.9134 276.403 39.4825 275.986 39.5624C275.578 39.6423 275.259 39.193 275.299 38.5739C275.339 37.9549 275.697 37.3857 276.105 37.3058ZM283.843 37.3058C284.251 37.226 284.569 37.6753 284.539 38.2943C284.509 38.9134 284.151 39.4825 283.733 39.5624C283.326 39.6423 283.007 39.193 283.047 38.5739C283.067 37.9549 283.435 37.3857 283.843 37.3058Z" fill="#3F2207"/>
</svg>
